<svg width="426" height="390" viewBox="0 0 426 390" fill="none" xmlns="http://www.w3.org/2000/svg">
<g id="roddenvo-tight">
<path id="Vector" d="M399.262 178.609V140.336C399.262 62.8307 315.869 0 212.997 0C110.124 0 26.7321 62.8297 26.7321 140.336V178.609C18.9119 180.957 12.1438 185.292 7.3574 191.019C2.57096 196.746 0.000841597 203.584 0 210.595V345.748C0.000223755 354.464 3.97002 362.845 11.0868 369.156C18.2037 375.467 27.922 379.223 38.228 379.646V383.439C38.228 385.179 39.0464 386.848 40.503 388.078C41.9596 389.309 43.9353 390 45.9953 390H80.051C82.1109 390 84.0866 389.309 85.5432 388.078C86.9998 386.848 87.8181 385.179 87.8181 383.439V169.962C87.8181 168.222 86.9998 166.553 85.5432 165.322C84.0866 164.092 82.1109 163.401 80.051 163.401H61.0865V140.123C61.0865 76.8647 129.071 25.5709 213 25.4515C296.925 25.5732 364.914 76.8657 364.914 140.123V163.401H345.949C343.889 163.401 341.913 164.092 340.457 165.322C339 166.553 338.182 168.222 338.182 169.962V383.439C338.182 385.179 339 386.848 340.457 388.078C341.913 389.309 343.889 390 345.949 390H380.005C382.065 390 384.04 389.309 385.497 388.078C386.954 386.848 387.772 385.179 387.772 383.439V379.646C398.078 379.223 407.796 375.467 414.913 369.156C422.03 362.845 426 354.464 426 345.748V210.595C425.999 203.584 423.429 196.746 418.643 191.019C413.856 185.292 407.088 180.957 399.268 178.609H399.262Z" fill="black"/>
<path id="r" d="M210.242 172.391C209.331 181.245 208.615 190.229 208.094 199.344C207.573 208.328 207.182 217.898 206.922 228.055C217.469 209.435 227.169 196.023 236.023 187.82C245.008 179.617 254.253 175.516 263.758 175.516C271.18 175.516 277.039 177.534 281.336 181.57C285.633 185.477 287.781 190.815 287.781 197.586C287.781 202.404 286.349 206.57 283.484 210.086C280.75 213.471 277.495 215.164 273.719 215.164C271.375 215.164 267.729 213.927 262.781 211.453C257.964 208.849 253.797 207.547 250.281 207.547C243.51 207.547 236.74 210.542 229.969 216.531C223.198 222.391 216.102 231.57 208.68 244.07V265.555C208.68 286.388 208.81 303.315 209.07 316.336C209.461 329.227 209.982 337.43 210.633 340.945C211.805 347.586 214.279 352.143 218.055 354.617C221.961 357.091 228.536 358.328 237.781 358.328H243.445V372C233.289 371.219 224.24 370.633 216.297 370.242C208.354 369.852 201.648 369.656 196.18 369.656C188.628 369.656 180.815 369.852 172.742 370.242C164.799 370.633 156.466 371.219 147.742 372V358.328H152.234C161.74 358.328 168.185 356.049 171.57 351.492C174.956 346.935 176.648 336.323 176.648 319.656V299.148V235.672C176.648 221.609 175.672 212.56 173.719 208.523C171.766 204.487 168.185 202.469 162.977 202.469C161.935 202.469 160.828 202.534 159.656 202.664C158.484 202.664 156.531 202.859 153.797 203.25L151.453 191.141C160.698 189.057 170.203 186.453 179.969 183.328C189.734 180.203 199.826 176.557 210.242 172.391Z" fill="black"/>
</g>
</svg>
